<mxfile host="app.diagrams.net" modified="2023-09-27T23:06:59.679Z" agent="Mozilla/5.0 (Macintosh; Intel Mac OS X 10_15_7) AppleWebKit/537.36 (KHTML, like Gecko) Chrome/116.0.0.0 Safari/537.36" etag="xoHBqooKxOC-iZ9jzfnx" version="21.8.2" type="github">
  <diagram name="Page-1" id="9f46799a-70d6-7492-0946-bef42562c5a5">
    <mxGraphModel dx="1314" dy="793" grid="1" gridSize="10" guides="1" tooltips="1" connect="1" arrows="1" fold="1" page="1" pageScale="1" pageWidth="1100" pageHeight="850" background="none" math="0" shadow="0">
      <root>
        <mxCell id="0" />
        <mxCell id="1" parent="0" />
        <mxCell id="tzhDZtTNpk9A9OBAJ9qF-6" value="&lt;p style=&quot;margin:0px;margin-top:4px;text-align:center;text-decoration:underline;&quot;&gt;&lt;b&gt;User&lt;/b&gt;&lt;/p&gt;&lt;hr&gt;&lt;p style=&quot;margin:0px;margin-left:8px;&quot;&gt;Id&lt;br&gt;email&lt;/p&gt;&lt;p style=&quot;margin:0px;margin-left:8px;&quot;&gt;profilePicture&lt;br&gt;mobile number&lt;/p&gt;&lt;p style=&quot;margin:0px;margin-left:8px;&quot;&gt;country code&lt;/p&gt;&lt;p style=&quot;margin:0px;margin-left:8px;&quot;&gt;user type(1=user,2=chef&lt;span style=&quot;background-color: initial;&quot;&gt;)&lt;/span&gt;&lt;/p&gt;&lt;p style=&quot;margin:0px;margin-left:8px;&quot;&gt;password&lt;/p&gt;&lt;p style=&quot;margin:0px;margin-left:8px;&quot;&gt;dob&lt;/p&gt;&lt;p style=&quot;margin:0px;margin-left:8px;&quot;&gt;gender&lt;/p&gt;&lt;p style=&quot;margin:0px;margin-left:8px;&quot;&gt;addressId&lt;/p&gt;&lt;p style=&quot;margin:0px;margin-left:8px;&quot;&gt;createdAt&lt;/p&gt;&lt;p style=&quot;margin:0px;margin-left:8px;&quot;&gt;updatedAt&lt;/p&gt;&lt;p style=&quot;margin:0px;margin-left:8px;&quot;&gt;OTP&lt;/p&gt;&lt;p style=&quot;margin:0px;margin-left:8px;&quot;&gt;fcmToken&lt;/p&gt;&lt;p style=&quot;margin:0px;margin-left:8px;&quot;&gt;authToken&lt;/p&gt;&lt;p style=&quot;margin:0px;margin-left:8px;&quot;&gt;mobileId&lt;/p&gt;" style="verticalAlign=top;align=left;overflow=fill;fontSize=12;fontFamily=Helvetica;html=1;whiteSpace=wrap;" vertex="1" parent="1">
          <mxGeometry x="60" y="80" width="160" height="290" as="geometry" />
        </mxCell>
        <mxCell id="tzhDZtTNpk9A9OBAJ9qF-7" value="&lt;p style=&quot;margin:0px;margin-top:4px;text-align:center;text-decoration:underline;&quot;&gt;&lt;b&gt;Address&lt;/b&gt;&lt;/p&gt;&lt;hr&gt;&lt;p style=&quot;margin:0px;margin-left:8px;&quot;&gt;Id&lt;br&gt;userId&lt;br&gt;street1&lt;/p&gt;&lt;p style=&quot;margin:0px;margin-left:8px;&quot;&gt;street2&lt;/p&gt;&lt;p style=&quot;margin:0px;margin-left:8px;&quot;&gt;city&lt;/p&gt;&lt;p style=&quot;margin:0px;margin-left:8px;&quot;&gt;province&lt;/p&gt;&lt;p style=&quot;margin:0px;margin-left:8px;&quot;&gt;country&lt;/p&gt;&lt;p style=&quot;margin:0px;margin-left:8px;&quot;&gt;zipcode&lt;/p&gt;" style="verticalAlign=top;align=left;overflow=fill;fontSize=12;fontFamily=Helvetica;html=1;whiteSpace=wrap;" vertex="1" parent="1">
          <mxGeometry x="250" y="80" width="160" height="190" as="geometry" />
        </mxCell>
        <mxCell id="tzhDZtTNpk9A9OBAJ9qF-8" value="&lt;p style=&quot;margin:0px;margin-top:4px;text-align:center;text-decoration:underline;&quot;&gt;&lt;b&gt;Chef&lt;/b&gt;&lt;/p&gt;&lt;hr&gt;&lt;p style=&quot;margin:0px;margin-left:8px;&quot;&gt;Id&lt;br&gt;userId&lt;br&gt;cuisines[]&lt;/p&gt;&lt;p style=&quot;margin:0px;margin-left:8px;&quot;&gt;preferedCities[]&lt;/p&gt;&lt;p style=&quot;margin:0px;margin-left:8px;&quot;&gt;scheduleId&lt;/p&gt;" style="verticalAlign=top;align=left;overflow=fill;fontSize=12;fontFamily=Helvetica;html=1;whiteSpace=wrap;" vertex="1" parent="1">
          <mxGeometry x="250" y="290" width="160" height="110" as="geometry" />
        </mxCell>
        <mxCell id="tzhDZtTNpk9A9OBAJ9qF-10" value="&lt;p style=&quot;margin:0px;margin-top:4px;text-align:center;text-decoration:underline;&quot;&gt;&lt;b&gt;Schedule&lt;/b&gt;&lt;/p&gt;&lt;hr&gt;&lt;p style=&quot;margin:0px;margin-left:8px;&quot;&gt;id&lt;/p&gt;&lt;p style=&quot;margin:0px;margin-left:8px;&quot;&gt;chefId&lt;/p&gt;&lt;p style=&quot;margin:0px;margin-left:8px;&quot;&gt;monday&lt;/p&gt;&lt;p style=&quot;margin:0px;margin-left:8px;&quot;&gt;tuesday&lt;/p&gt;&lt;p style=&quot;margin:0px;margin-left:8px;&quot;&gt;wednesday&lt;/p&gt;&lt;p style=&quot;margin:0px;margin-left:8px;&quot;&gt;thursday&lt;/p&gt;&lt;p style=&quot;margin:0px;margin-left:8px;&quot;&gt;friday&lt;/p&gt;&lt;p style=&quot;margin:0px;margin-left:8px;&quot;&gt;saturday&lt;/p&gt;&lt;p style=&quot;margin:0px;margin-left:8px;&quot;&gt;sunday&lt;/p&gt;" style="verticalAlign=top;align=left;overflow=fill;fontSize=12;fontFamily=Helvetica;html=1;whiteSpace=wrap;" vertex="1" parent="1">
          <mxGeometry x="420" y="300" width="160" height="170" as="geometry" />
        </mxCell>
        <mxCell id="tzhDZtTNpk9A9OBAJ9qF-11" value="&lt;p style=&quot;margin:0px;margin-top:4px;text-align:center;text-decoration:underline;&quot;&gt;&lt;b&gt;Post&lt;/b&gt;&lt;/p&gt;&lt;hr&gt;&lt;p style=&quot;margin:0px;margin-left:8px;&quot;&gt;id&lt;/p&gt;&lt;p style=&quot;margin:0px;margin-left:8px;&quot;&gt;chefId&lt;/p&gt;&lt;p style=&quot;margin:0px;margin-left:8px;&quot;&gt;media&lt;/p&gt;&lt;p style=&quot;margin:0px;margin-left:8px;&quot;&gt;caption&lt;/p&gt;&lt;p style=&quot;margin:0px;margin-left:8px;&quot;&gt;likeCount&lt;/p&gt;&lt;p style=&quot;margin:0px;margin-left:8px;&quot;&gt;postdate&lt;/p&gt;&lt;p style=&quot;margin:0px;margin-left:8px;&quot;&gt;createdAt&lt;/p&gt;&lt;p style=&quot;margin:0px;margin-left:8px;&quot;&gt;updatedAt&lt;/p&gt;&lt;p style=&quot;margin:0px;margin-left:8px;&quot;&gt;&lt;br&gt;&lt;/p&gt;" style="verticalAlign=top;align=left;overflow=fill;fontSize=12;fontFamily=Helvetica;html=1;whiteSpace=wrap;" vertex="1" parent="1">
          <mxGeometry x="430" y="80" width="160" height="200" as="geometry" />
        </mxCell>
        <mxCell id="tzhDZtTNpk9A9OBAJ9qF-12" value="&lt;p style=&quot;margin:0px;margin-top:4px;text-align:center;text-decoration:underline;&quot;&gt;&lt;b&gt;Chat&lt;/b&gt;&lt;/p&gt;&lt;hr&gt;&lt;p style=&quot;margin:0px;margin-left:8px;&quot;&gt;messageId&lt;br&gt;senderId&lt;/p&gt;&lt;p style=&quot;margin:0px;margin-left:8px;&quot;&gt;ReceiverId&lt;/p&gt;&lt;p style=&quot;margin:0px;margin-left:8px;&quot;&gt;media&lt;/p&gt;&lt;p style=&quot;margin:0px;margin-left:8px;&quot;&gt;message&lt;/p&gt;&lt;p style=&quot;margin:0px;margin-left:8px;&quot;&gt;messageType&lt;/p&gt;&lt;p style=&quot;margin:0px;margin-left:8px;&quot;&gt;deliveryStatus&lt;/p&gt;&lt;p style=&quot;margin:0px;margin-left:8px;&quot;&gt;senderAvatar&lt;/p&gt;&lt;p style=&quot;margin:0px;margin-left:8px;&quot;&gt;senderName&lt;/p&gt;&lt;p style=&quot;margin:0px;margin-left:8px;&quot;&gt;receiverAvatar&lt;/p&gt;&lt;p style=&quot;margin:0px;margin-left:8px;&quot;&gt;receiverName&lt;/p&gt;" style="verticalAlign=top;align=left;overflow=fill;fontSize=12;fontFamily=Helvetica;html=1;whiteSpace=wrap;" vertex="1" parent="1">
          <mxGeometry x="60" y="430" width="160" height="230" as="geometry" />
        </mxCell>
        <mxCell id="tzhDZtTNpk9A9OBAJ9qF-14" value="&lt;p style=&quot;margin:0px;margin-top:4px;text-align:center;text-decoration:underline;&quot;&gt;&lt;b&gt;OnlineUsers&lt;/b&gt;&lt;/p&gt;&lt;hr&gt;&lt;p style=&quot;margin:0px;margin-left:8px;&quot;&gt;userId&lt;/p&gt;&lt;p style=&quot;margin:0px;margin-left:8px;&quot;&gt;socketId&lt;/p&gt;" style="verticalAlign=top;align=left;overflow=fill;fontSize=12;fontFamily=Helvetica;html=1;whiteSpace=wrap;" vertex="1" parent="1">
          <mxGeometry x="270" y="530" width="160" height="90" as="geometry" />
        </mxCell>
        <mxCell id="tzhDZtTNpk9A9OBAJ9qF-15" value="&lt;p style=&quot;margin:0px;margin-top:4px;text-align:center;text-decoration:underline;&quot;&gt;&lt;b&gt;Booking&lt;/b&gt;&lt;/p&gt;&lt;hr&gt;&lt;p style=&quot;margin:0px;margin-left:8px;&quot;&gt;id&lt;/p&gt;&lt;p style=&quot;margin:0px;margin-left:8px;&quot;&gt;userId&lt;/p&gt;&lt;p style=&quot;margin:0px;margin-left:8px;&quot;&gt;ChefId&lt;/p&gt;&lt;p style=&quot;margin:0px;margin-left:8px;&quot;&gt;bookingTime&lt;/p&gt;&lt;p style=&quot;margin:0px;margin-left:8px;&quot;&gt;bookingDay&lt;/p&gt;&lt;p style=&quot;margin:0px;margin-left:8px;&quot;&gt;bookingStatus&lt;/p&gt;&lt;p style=&quot;margin:0px;margin-left:8px;&quot;&gt;isCompleted&lt;/p&gt;&lt;p style=&quot;margin:0px;margin-left:8px;&quot;&gt;bookingPrice&lt;/p&gt;&lt;p style=&quot;margin:0px;margin-left:8px;&quot;&gt;paymentId&lt;/p&gt;&lt;p style=&quot;margin:0px;margin-left:8px;&quot;&gt;feedbackId&lt;/p&gt;" style="verticalAlign=top;align=left;overflow=fill;fontSize=12;fontFamily=Helvetica;html=1;whiteSpace=wrap;" vertex="1" parent="1">
          <mxGeometry x="520" y="520" width="160" height="220" as="geometry" />
        </mxCell>
        <mxCell id="tzhDZtTNpk9A9OBAJ9qF-16" value="&lt;p style=&quot;margin:0px;margin-top:4px;text-align:center;text-decoration:underline;&quot;&gt;&lt;b&gt;Payment&lt;/b&gt;&lt;/p&gt;&lt;hr&gt;&lt;p style=&quot;margin:0px;margin-left:8px;&quot;&gt;Id&lt;/p&gt;&lt;p style=&quot;margin:0px;margin-left:8px;&quot;&gt;paymentType&lt;/p&gt;&lt;p style=&quot;margin:0px;margin-left:8px;&quot;&gt;paymentTime&lt;/p&gt;&lt;p style=&quot;margin:0px;margin-left:8px;&quot;&gt;transectionId&lt;/p&gt;&lt;p style=&quot;margin:0px;margin-left:8px;&quot;&gt;bookingId&lt;/p&gt;&lt;p style=&quot;margin:0px;margin-left:8px;&quot;&gt;amount&lt;/p&gt;&lt;p style=&quot;margin:0px;margin-left:8px;&quot;&gt;isSuccess&lt;/p&gt;" style="verticalAlign=top;align=left;overflow=fill;fontSize=12;fontFamily=Helvetica;html=1;whiteSpace=wrap;" vertex="1" parent="1">
          <mxGeometry x="320" y="660" width="160" height="150" as="geometry" />
        </mxCell>
        <mxCell id="tzhDZtTNpk9A9OBAJ9qF-17" value="&lt;p style=&quot;margin:0px;margin-top:4px;text-align:center;text-decoration:underline;&quot;&gt;&lt;b&gt;Feedback&lt;/b&gt;&lt;/p&gt;&lt;hr&gt;&lt;p style=&quot;margin:0px;margin-left:8px;&quot;&gt;id&lt;/p&gt;&lt;p style=&quot;margin:0px;margin-left:8px;&quot;&gt;message&lt;/p&gt;&lt;p style=&quot;margin:0px;margin-left:8px;&quot;&gt;createdAt&lt;/p&gt;&lt;p style=&quot;margin:0px;margin-left:8px;&quot;&gt;updatedAt&lt;/p&gt;&lt;p style=&quot;margin:0px;margin-left:8px;&quot;&gt;rating&lt;/p&gt;" style="verticalAlign=top;align=left;overflow=fill;fontSize=12;fontFamily=Helvetica;html=1;whiteSpace=wrap;" vertex="1" parent="1">
          <mxGeometry x="700" y="540" width="160" height="180" as="geometry" />
        </mxCell>
      </root>
    </mxGraphModel>
  </diagram>
</mxfile>
